<svg width="120" height="120" xmlns="http://www.w3.org/2000/svg" viewBox="-118 -118 236 236"><defs><radialGradient id="og"><stop offset="0%" stop-color="#4db896" stop-opacity="0.26"/><stop offset="55%" stop-color="#4db896" stop-opacity="0.09"/><stop offset="100%" stop-color="#4db896" stop-opacity="0"/></radialGradient><radialGradient id="hc" cx="42%" cy="36%" r="70%"><stop offset="0%" stop-color="#9ff0d2" stop-opacity="0.85"/><stop offset="45%" stop-color="#4db896" stop-opacity="0.38"/><stop offset="100%" stop-color="#4db896" stop-opacity="0"/></radialGradient><radialGradient id="tc" cx="42%" cy="36%" r="70%"><stop offset="0%" stop-color="#9ff0d2" stop-opacity="0.85"/><stop offset="45%" stop-color="#4db896" stop-opacity="0.38"/><stop offset="100%" stop-color="#4db896" stop-opacity="0"/></radialGradient></defs><circle cx="0" cy="0" r="100" fill="url(#og)" opacity="0.70"/><g><path fill="none" stroke="#2d8f70" stroke-width="1.28" opacity="0.16" stroke-linejoin="round" d="M-59.9 64.1L-65.6 54.1L-72.9 45.4L-73.4 44.7L-65.9 53.7L-59.6 64.3ZM-51.5 18.0L-56.1 9.6L-55.3 1.0L-53.5 3.0L-53.2 12.3L-50.3 18.9ZM-37.8 42.0L-44.8 35.8L-47.9 26.8L-47.0 27.2L-43.8 35.6L-37.7 41.4ZM-14.8 57.8L-23.7 55.9L-30.7 48.8L-31.1 47.8L-25.4 53.4L-16.2 56.2ZM14.1 60.0L5.1 63.4L-5.1 60.3L-7.1 58.3L0.2 59.3L11.0 57.7ZM-76.4 -23.5L-77.9 -33.4L-71.1 -44.7L-62.8 -43.9L-61.8 -33.5L-68.1 -24.3ZM-75.1 9.8L-80.3 0.4L-77.3 -12.0L-69.0 -13.6L-64.7 -4.0L-67.3 6.8ZM-62.1 42.2L-70.7 34.2L-71.9 21.4L-64.5 17.6L-57.2 25.7L-55.6 37.2ZM-37.9 68.5L-49.6 63.8L-54.9 52.4L-48.9 46.7L-39.0 51.8L-33.0 61.8ZM-4.4 81.7L-18.1 82.5L-27.1 74.9L-22.9 67.7L-11.2 67.9L-1.6 73.9ZM32.5 78.3L19.3 84.6L8.4 82.4L10.5 74.3L21.9 68.7L33.0 70.0ZM64.7 62.4L54.6 71.8L44.6 73.7L44.3 65.5L52.7 56.3L63.0 54.6Z"/><path fill="none" stroke="#4db896" stroke-width="1.44" opacity="0.34" stroke-linejoin="round" d="M-80.3 -29.9L-74.0 -37.2L-71.5 -49.5L-72.9 -55.2L-77.1 -47.1L-81.9 -34.4ZM-84.8 2.0L-82.0 -7.2L-83.1 -19.0L-84.8 -22.9L-85.3 -13.6L-86.3 -0.7ZM-78.0 34.5L-79.3 24.1L-83.7 13.3L-85.0 11.2L-81.5 20.9L-78.8 33.3ZM-31.2 84.3L-41.2 77.4L-51.0 72.6L-50.3 73.2L-38.9 79.2L-29.5 85.6ZM4.3 88.8L-8.4 86.7L-19.3 87.8L-17.1 89.3L-3.2 90.1L7.5 90.7ZM39.0 77.9L26.2 80.1L16.8 86.4L20.7 88.4L34.7 84.0L43.9 79.9ZM65.3 59.2L54.6 63.3L49.3 71.8L54.9 73.7L66.4 66.5L72.0 60.5ZM-51.9 -34.2L-44.1 -41.4L-42.5 -47.8L-50.2 -50.5L-59.7 -45.5L-60.3 -35.6ZM-60.9 -11.1L-55.1 -19.7L-55.8 -26.4L-64.5 -27.0L-72.0 -19.5L-69.6 -10.2ZM-61.7 13.4L-58.8 3.7L-62.1 -2.7L-70.8 -1.0L-75.2 8.4L-69.9 16.7ZM-53.4 38.0L-53.9 27.9L-59.9 22.1L-67.7 26.1L-68.3 36.9L-60.4 43.4ZM-35.8 58.1L-39.8 49.5L-48.4 45.8L-54.8 51.9L-51.1 62.2L-41.0 65.2ZM-10.1 66.9L-17.0 62.2L-27.6 62.7L-32.1 70.3L-24.3 77.6L-13.2 75.2ZM18.2 61.6L10.5 61.2L-0.2 66.5L-2.5 75.1L7.7 77.8L17.5 70.2ZM41.8 47.4L35.7 49.1L27.3 57.2L27.4 65.8L37.3 65.2L43.4 55.5ZM55.9 32.2L52.6 33.9L47.9 41.9L50.1 49.6L58.0 47.8L59.2 38.9ZM-19.5 -74.2L-13.5 -82.6L-5.8 -80.8L-7.0 -72.9L-14.7 -67.6L-19.5 -66.8ZM-37.9 -56.1L-34.2 -66.4L-26.4 -68.8L-25.8 -61.8L-32.3 -53.7L-36.5 -50.0ZM-50.7 -33.1L-49.8 -43.4L-43.1 -48.5L-41.4 -42.9L-46.1 -33.7L-48.7 -28.7ZM-55.7 -8.0L-57.6 -17.6L-53.4 -24.5L-51.3 -20.7L-53.6 -11.3L-53.7 -5.4ZM42.0 49.5L35.4 56.6L24.3 57.5L20.6 55.1L27.1 52.0L37.1 47.2ZM62.4 33.5L59.9 41.2L50.1 44.1L44.7 42.0L48.3 37.5L55.9 31.9ZM72.6 17.7L74.5 24.2L67.1 27.9L60.1 26.8L60.1 23.1L64.7 17.7ZM-46.3 -83.1L-41.1 -91.0L-29.3 -96.6L-23.5 -92.0L-28.8 -83.2L-39.4 -79.6ZM-66.3 -55.4L-64.2 -65.1L-54.2 -74.3L-46.8 -71.4L-49.1 -60.8L-58.2 -53.9ZM86.4 41.7L80.7 51.7L73.5 55.4L71.2 48.0L75.0 38.2L82.9 35.1Z"/></g><g transform="scale(1.035)"><g opacity="0.42"><circle cx="0" cy="18" r="10.3" fill="url(#tc)" opacity="0.75"/><path fill="none" stroke="#2d8f70" stroke-width="1.28" opacity="0.16" stroke-linejoin="round" d="M-8.1 15.5L-5.6 11.6L-1.3 11.8L0.4 15.7L-2.0 19.3L-6.2 19.4ZM-1.3 22.7L1.4 19.3L5.7 19.4L7.4 23.0L4.6 26.7L0.1 26.4Z"/><path fill="none" stroke="#4db896" stroke-width="1.44" opacity="0.34" stroke-linejoin="round" d="M6.6 13.3L5.8 9.4L8.0 8.6L11.3 12.4L11.9 16.7L9.4 16.8ZM-4.9 27.5L-2.3 25.4L2.3 25.4L4.9 27.5L2.7 30.0L-2.7 30.0Z"/><path fill="none" stroke="#4db896" stroke-width="1.68" opacity="0.66" stroke-linejoin="round" d="M5.8 6.9L2.7 5.9L-2.7 5.9L-5.8 6.9L-3.1 8.0L3.1 8.0ZM-9.8 10.7L-6.5 7.1L-6.1 8.1L-8.5 12.0L-11.4 15.2L-12.3 15.0ZM10.4 22.9L12.4 19.0L12.2 19.1L9.6 23.9L7.5 28.0L8.2 27.1ZM-9.6 25.6L-12.2 21.4L-11.3 21.1L-8.2 24.3L-5.8 28.0L-6.2 29.1Z"/><path fill="none" stroke="#9ff0d2" stroke-width="2.00" opacity="0.95" stroke-linejoin="round" d="M9.9 11.5L5.9 7.3L0.6 6.8L-1.2 10.9L3.0 15.8L8.8 15.9ZM1.8 21.7L-1.9 16.1L-8.0 16.2L-10.1 21.5L-6.7 26.6L-0.9 27.0Z"/></g><g opacity="1"><circle cx="0" cy="-16" r="14.7" fill="url(#hc)" opacity="0.75"/><path fill="none" stroke="#2d8f70" stroke-width="1.28" opacity="0.16" stroke-linejoin="round" d="M0.2 -25.3L1.2 -29.0L5.9 -29.4L9.4 -25.8L8.1 -22.2L3.6 -22.1ZM-7.3 -18.2L-4.8 -22.4L-0.1 -22.3L2.1 -18.2L-0.3 -14.2L-5.0 -14.2ZM3.6 -12.3L6.3 -16.2L10.5 -16.2L12.2 -12.0L9.3 -7.8L5.0 -8.1ZM-10.8 -7.9L-9.5 -11.8L-5.2 -11.9L-1.9 -8.5L-2.8 -4.5L-7.3 -4.1Z"/><path fill="none" stroke="#4db896" stroke-width="1.44" opacity="0.34" stroke-linejoin="round" d="M-8.8 -30.5L-3.5 -32.7L-0.0 -31.8L-1.7 -29.1L-6.4 -27.1L-10.0 -27.7ZM-16.1 -21.0L-13.3 -25.4L-10.5 -24.8L-10.5 -20.4L-13.0 -16.3L-15.8 -16.4ZM12.5 -18.1L12.9 -22.7L15.1 -23.2L17.0 -18.4L16.4 -13.6L14.1 -13.7ZM-15.7 -8.9L-17.1 -13.7L-15.6 -13.9L-13.1 -9.8L-11.7 -5.3L-12.9 -4.6ZM4.2 -4.0L8.7 -6.3L11.9 -5.8L10.4 -2.5L5.3 0.1L2.4 -0.8ZM-5.3 -2.0L-2.5 -4.2L2.5 -4.2L5.3 -2.0L2.8 0.5L-2.8 0.5Z"/><path fill="none" stroke="#4db896" stroke-width="1.68" opacity="0.66" stroke-linejoin="round" d="M6.1 -32.1L2.9 -32.8L-2.9 -32.8L-6.1 -32.1L-3.2 -31.2L3.2 -31.2Z"/><path fill="none" stroke="#9ff0d2" stroke-width="2.00" opacity="0.95" stroke-linejoin="round" d="M4.9 -28.7L2.0 -32.1L-4.3 -31.9L-8.2 -28.4L-5.8 -24.6L1.1 -24.7ZM14.8 -24.7L11.2 -29.2L8.8 -30.0L10.3 -26.0L14.4 -21.0L16.5 -20.7ZM-10.7 -23.0L-10.3 -27.9L-13.1 -27.2L-16.2 -22.2L-16.8 -17.5L-14.1 -17.6ZM12.9 -15.4L9.9 -21.4L3.6 -21.6L0.2 -15.4L3.4 -9.3L9.8 -9.5ZM-4.5 -9.1L-8.6 -14.8L-13.7 -14.9L-14.7 -9.7L-11.0 -4.5L-5.9 -4.0ZM15.4 -8.3L16.8 -12.6L14.8 -12.3L11.1 -7.2L9.9 -2.8L12.1 -3.7ZM6.5 -0.7L3.7 -2.5L-3.0 -2.5L-6.1 -0.6L-2.9 1.1L3.1 1.0Z"/></g></g><g><path fill="none" stroke="#4db896" stroke-width="1.68" opacity="0.66" stroke-linejoin="round" d="M-42.2 -82.1L-32.8 -82.5L-24.4 -90.7L-23.0 -99.0L-31.3 -98.0L-42.1 -89.8ZM-65.2 -59.2L-56.6 -63.8L-50.9 -75.2L-51.3 -82.4L-58.1 -76.8L-66.4 -65.4ZM79.7 38.8L72.0 44.1L71.7 52.2L78.9 53.1L86.9 44.9L87.9 38.6ZM-17.9 -67.1L-9.1 -68.2L-4.8 -68.8L-8.3 -73.7L-17.5 -77.5L-23.1 -71.7ZM-36.7 -54.2L-27.9 -59.2L-24.7 -63.8L-30.6 -68.1L-40.6 -66.6L-43.9 -57.5ZM59.7 18.3L59.3 20.3L58.4 27.3L62.1 33.4L67.3 30.8L64.0 23.0ZM1.9 -82.0L10.0 -86.2L16.6 -78.9L13.1 -70.7L4.6 -70.2L-0.1 -73.9ZM72.7 0.7L78.5 6.8L73.7 12.2L65.5 12.9L62.0 9.7L64.0 3.0ZM-19.2 -101.4L-11.7 -105.1L0.9 -105.0L4.2 -99.7L-3.6 -95.1L-14.3 -96.5ZM95.8 18.7L94.7 29.2L91.1 34.0L87.1 28.1L86.1 19.0L91.1 14.1Z"/><path fill="none" stroke="#9ff0d2" stroke-width="2.00" opacity="0.95" stroke-linejoin="round" d="M69.7 -16.6L69.7 -3.4L78.8 5.4L88.0 2.0L87.5 -11.7L78.7 -21.8ZM46.2 -54.4L50.5 -38.6L62.7 -29.6L71.3 -35.8L66.1 -51.8L53.6 -61.9ZM16.2 -83.4L23.7 -71.0L36.2 -66.2L42.8 -74.3L34.7 -87.2L21.1 -92.0ZM-14.3 -92.4L-5.3 -86.7L5.5 -88.9L9.4 -97.7L0.5 -103.4L-12.1 -101.0ZM81.3 15.4L77.0 23.6L81.7 31.3L90.3 30.4L94.3 20.5L90.5 12.9ZM40.9 -24.1L46.0 -16.2L50.3 -6.9L54.2 -5.9L52.8 -16.4L43.7 -25.2ZM22.5 -50.8L29.6 -42.9L34.9 -33.8L36.9 -35.9L32.0 -48.6L22.8 -54.5ZM2.3 -67.0L10.5 -63.0L15.6 -58.2L14.9 -62.4L7.3 -72.0L-0.3 -71.9ZM54.1 1.0L56.6 5.5L58.7 13.0L63.2 16.9L65.3 11.2L58.4 3.0ZM63.4 -22.7L72.2 -15.8L70.5 -6.5L61.7 -3.4L55.5 -8.0L54.9 -17.8ZM46.2 -51.4L56.5 -45.3L58.2 -32.5L50.1 -26.8L41.9 -32.9L39.3 -44.4ZM24.5 -74.3L34.3 -72.7L39.0 -60.7L32.9 -53.1L24.1 -57.4L20.1 -66.2ZM73.9 -48.5L81.5 -34.8L87.2 -23.1L82.6 -23.7L73.6 -33.9L70.4 -46.9ZM45.0 -84.3L54.7 -74.0L64.7 -62.0L62.1 -59.4L51.4 -67.3L44.2 -80.1ZM12.1 -103.5L21.4 -100.4L33.7 -93.3L34.0 -88.5L24.0 -90.5L14.4 -98.1ZM91.9 -10.7L95.4 1.7L96.0 9.5L91.1 5.8L85.8 -3.6L87.0 -12.5Z"/></g></svg>
